<svg width="24" height="21" viewBox="0 0 24 21" fill="none" xmlns="http://www.w3.org/2000/svg">
<path d="M13.1716 2.625H9C7.11438 2.625 6.17157 2.625 5.58579 3.13756C5 3.65013 5 4.47508 5 6.125V14.875C5 16.5249 5 17.3499 5.58579 17.8624C6.17157 18.375 7.11438 18.375 9 18.375H15C16.8856 18.375 17.8284 18.375 18.4142 17.8624C19 17.3499 19 16.5249 19 14.875V7.72487C19 7.36722 19 7.18839 18.9239 7.02759C18.8478 6.86679 18.7032 6.74034 18.4142 6.48744L14.5858 3.13756C14.2968 2.88466 14.1522 2.75821 13.9685 2.69161C13.7847 2.625 13.5803 2.625 13.1716 2.625Z" stroke="#4D0CD7" stroke-width="2"/>
<path d="M9 11.375L15 11.375" stroke="#4D0CD7" stroke-width="2" stroke-linecap="round"/>
<path d="M9 14.875L13 14.875" stroke="#4D0CD7" stroke-width="2" stroke-linecap="round"/>
<path d="M13 2.625V6.125C13 6.94996 13 7.36244 13.2929 7.61872C13.5858 7.875 14.0572 7.875 15 7.875H19" stroke="#4D0CD7" stroke-width="2"/>
</svg>
