<svg width="25" height="76" viewBox="0 0 25 76" fill="none" xmlns="http://www.w3.org/2000/svg">
<g clip-path="url(#clip0_502_1095)">
<ellipse cx="12" cy="7" rx="7" ry="3" stroke="#FCFCFE" stroke-width="2"/>
<path d="M5 13C5 13 5 15.3431 5 17C5 18.6569 8.13401 20 12 20C15.866 20 19 18.6569 19 17C19 16.173 19 13 19 13" stroke="#FCFCFE" stroke-width="2" stroke-linecap="square"/>
<path d="M5 7C5 7 5 10.3431 5 12C5 13.6569 8.13401 15 12 15C15.866 15 19 13.6569 19 12C19 11.173 19 7 19 7" stroke="#FCFCFE" stroke-width="2"/>
<path d="M14.1716 57.625H10C8.11438 57.625 7.17157 57.625 6.58579 58.1376C6 58.6501 6 59.4751 6 61.125V69.875C6 71.5249 6 72.3499 6.58579 72.8624C7.17157 73.375 8.11438 73.375 10 73.375H16C17.8856 73.375 18.8284 73.375 19.4142 72.8624C20 72.3499 20 71.5249 20 69.875V62.7249C20 62.3672 20 62.1884 19.9239 62.0276C19.8478 61.8668 19.7032 61.7403 19.4142 61.4874L15.5858 58.1376C15.2968 57.8847 15.1522 57.7582 14.9685 57.6916C14.7847 57.625 14.5803 57.625 14.1716 57.625Z" stroke="#4D0CD7" stroke-width="2"/>
<path d="M10 66.375L16 66.375" stroke="#4D0CD7" stroke-width="2" stroke-linecap="round"/>
<path d="M10 69.875L14 69.875" stroke="#4D0CD7" stroke-width="2" stroke-linecap="round"/>
<path d="M14 57.625V61.125C14 61.95 14 62.3624 14.2929 62.6187C14.5858 62.875 15.0572 62.875 16 62.875H20" stroke="#4D0CD7" stroke-width="2"/>
</g>
<defs>
<clipPath id="clip0_502_1095">
<rect width="25" height="76" fill="white"/>
</clipPath>
</defs>
</svg>
